<mxfile host="app.diagrams.net" modified="2023-11-02T03:50:31.673Z" agent="Mozilla/5.0 (Macintosh; Intel Mac OS X 10_15_7) AppleWebKit/605.1.15 (KHTML, like Gecko) Version/17.0 Safari/605.1.15" etag="UHVPc5zlZoQvRugo66MC" version="22.0.8" type="github">
  <diagram name="第 1 页" id="L_fMNPPxDLcyUeQZIdtq">
    <mxGraphModel dx="954" dy="675" grid="1" gridSize="10" guides="1" tooltips="1" connect="1" arrows="1" fold="1" page="1" pageScale="1" pageWidth="827" pageHeight="1169" math="0" shadow="0">
      <root>
        <mxCell id="0" />
        <mxCell id="1" parent="0" />
        <mxCell id="2" value="" style="ellipse;fillColor=strokeColor;" parent="1" vertex="1">
          <mxGeometry x="348" y="120" width="14" height="14" as="geometry" />
        </mxCell>
        <mxCell id="3" value="登出" style="rounded=1;absoluteArcSize=1;arcSize=14;whiteSpace=wrap;strokeWidth=2;" parent="1" vertex="1">
          <mxGeometry x="309" y="184" width="91" height="34" as="geometry" />
        </mxCell>
        <mxCell id="4" value="尝试登陆" style="rounded=1;absoluteArcSize=1;arcSize=14;whiteSpace=wrap;strokeWidth=2;" parent="1" vertex="1">
          <mxGeometry x="286" y="286" width="82" height="34" as="geometry" />
        </mxCell>
        <mxCell id="5" value="登陆成功" style="rounded=1;absoluteArcSize=1;arcSize=14;whiteSpace=wrap;strokeWidth=2;" parent="1" vertex="1">
          <mxGeometry x="288" y="388" width="79" height="34" as="geometry" />
        </mxCell>
        <mxCell id="6" value="登出" style="rounded=1;absoluteArcSize=1;arcSize=14;whiteSpace=wrap;strokeWidth=2;" parent="1" vertex="1">
          <mxGeometry x="280" y="491" width="95" height="34" as="geometry" />
        </mxCell>
        <mxCell id="7" value="" style="ellipse;shape=endState;fillColor=strokeColor;" parent="1" vertex="1">
          <mxGeometry x="427" y="296" width="14" height="14" as="geometry" />
        </mxCell>
        <mxCell id="8" value="" style="curved=1;startArrow=none;;exitX=0.5092075892857143;exitY=1;entryX=0.5069110576923077;entryY=0;" parent="1" source="2" target="3" edge="1">
          <mxGeometry relative="1" as="geometry">
            <Array as="points" />
          </mxGeometry>
        </mxCell>
        <mxCell id="9" value="login" style="curved=1;startArrow=none;;exitX=0.30711760048055914;exitY=0.9880514705882353;entryX=0.3949507341081151;entryY=0.0055147058823529415;" parent="1" source="3" target="4" edge="1">
          <mxGeometry x="-0.0057" relative="1" as="geometry">
            <Array as="points">
              <mxPoint x="300" y="252" />
            </Array>
            <mxPoint as="offset" />
          </mxGeometry>
        </mxCell>
        <mxCell id="10" value="success" style="curved=1;startArrow=none;;exitX=0.5058117378048781;exitY=0.9935661764705882;entryX=0.4997033227848101;entryY=0.011029411764705883;" parent="1" source="4" target="5" edge="1">
          <mxGeometry relative="1" as="geometry">
            <Array as="points" />
          </mxGeometry>
        </mxCell>
        <mxCell id="11" value="error" style="curved=1;startArrow=none;;exitX=0.616672741501641;exitY=0.0055147058823529415;entryX=0.5069110576923077;entryY=0.9880514705882353;" parent="1" source="4" target="3" edge="1">
          <mxGeometry relative="1" as="geometry">
            <Array as="points">
              <mxPoint x="355" y="252" />
            </Array>
          </mxGeometry>
        </mxCell>
        <mxCell id="12" value="logout" style="curved=1;startArrow=none;;exitX=0.4997033227848101;exitY=0.9990808823529411;entryX=0.4997532894736842;entryY=-0.012867647058823529;" parent="1" source="5" target="6" edge="1">
          <mxGeometry relative="1" as="geometry">
            <Array as="points" />
          </mxGeometry>
        </mxCell>
        <mxCell id="13" value="logout" style="curved=1;startArrow=none;;exitX=0.7934491385430319;exitY=0.9880514705882353;entryX=0.5318080357142857;entryY=-0.0011160714285714285;" parent="1" source="3" target="7" edge="1">
          <mxGeometry relative="1" as="geometry">
            <Array as="points">
              <mxPoint x="434" y="252" />
            </Array>
          </mxGeometry>
        </mxCell>
      </root>
    </mxGraphModel>
  </diagram>
</mxfile>
